<svg height="1024" viewBox="0 0 965.0002 1024" width="965.0002" xmlns="http://www.w3.org/2000/svg"><path d="m185 .15 730 159.85h79v864h-828a52 52 0 0 1 -52-52v-217.7079l69.4662-751.8812z" fill="#36697f" transform="translate(-29)"/><path d="m156 0h686a52 52 0 0 1 52 52v668a0 0 0 0 1 0 0h-738a0 0 0 0 1 0 0v-720a0 0 0 0 1 0 0z" fill="#37a5cc"/><path d="m0 814 156-94v-720l-156 94z" fill="#7dc6dd"/><g fill="#fff" transform="translate(-29)"><path d="m485.8462 790.9248v151.2022h-35.8562v-97.6338l-25.2724 97.4179v.2159h-35.6409l-26.7842-101.5215v101.5215h-32.4v-151.2022h47.52l30.4575 121.3936 31.9688-120.962-.2168-.4316z"/><path d="m596.61 909.0781h-45.361l-8.4238 33.0489h-37.5845l43.2007-151.2022h50.3291l45.5762 151.2022h-38.4483zm-23.112-93.3125-15.3369 65.2324h31.1055z"/><path d="m797.7686 942.127h-42.5528l-29.16-57.0254-29.5929 57.0254h-41.4729l47.7373-79.9219-42.7695-71.28h41.2568l25.4883 48.169h.2158l26.1368-48.169h39.9609l-42.9844 68.041z"/><path d="m392.6934 451.8257h93.4814c2.85 23.94 19.38 46.7407 59.28 46.7407 34.77 0 57.5713-16.53 57.5713-52.4409v-11.97c0-43.32-43.32-50.7305-71.8213-50.7305h-30.78v-66.6911h30.78c28.501 0 57.5713-9.12 57.5713-42.1807v-13.68c0-26.22-17.6709-39.33-46.7412-39.33-33.63 0-49.0206 21.09-51.3008 46.1709h-93.48c2.85-60.9907 55.86-115.7114 150.4815-115.7114 80.9414 0 139.082 41.04 139.082 99.7509v21.66c0 33.6308-31.9209 62.7012-71.251 71.8213 39.33 6.84 86.6406 33.63 86.6406 85.501v26.79c0 64.4111-64.41 111.7217-151.622 111.7217-111.7209-.0005-151.6213-58.7115-157.8918-117.4219z"/></g></svg>